<svg id="Capa_1" enable-background="new 0 0 512 512" height="512" viewBox="0 0 512 512" width="512" xmlns="http://www.w3.org/2000/svg">
    <g>
        <path d="m397.006 43.903h-18.941v-20.403c0-12.958-10.542-23.5-23.5-23.5h-209.72c-4.143 0-7.5 3.357-7.5 7.5s3.357 7.5 7.5 7.5h209.72c4.687 0 8.5 3.813 8.5 8.5v20.403h-295.283c-12.958 0-23.5 10.542-23.5 23.5v385.693h-18.94c-4.687 0-8.5-3.813-8.5-8.5v-421.096c0-4.687 3.813-8.5 8.5-8.5h84.419c4.143 0 7.5-3.357 7.5-7.5s-3.357-7.5-7.5-7.5h-84.419c-12.958 0-23.5 10.542-23.5 23.5v421.097c0 12.958 10.542 23.5 23.5 23.5h18.94v20.403c0 12.958 10.542 23.5 23.5 23.5h329.224c12.958 0 23.5-10.542 23.5-23.5v-421.097c0-12.958-10.542-23.5-23.5-23.5zm8.5 444.597c0 4.687-3.813 8.5-8.5 8.5h-329.224c-4.687 0-8.5-3.813-8.5-8.5 0-4.864 0-416.153 0-421.097 0-4.687 3.813-8.5 8.5-8.5h329.224c4.687 0 8.5 3.813 8.5 8.5z"/>
        <path d="m132.78 105.236c-16.487 0-29.9 13.413-29.9 29.9s13.413 29.9 29.9 29.9c16.486 0 29.899-13.413 29.899-29.9s-13.412-29.9-29.899-29.9zm0 44.801c-8.216 0-14.9-6.685-14.9-14.9s6.685-14.9 14.9-14.9 14.899 6.685 14.899 14.9-6.683 14.9-14.899 14.9z"/>
        <path d="m354.408 111.988h-167.311c-4.143 0-7.5 3.357-7.5 7.5s3.357 7.5 7.5 7.5h167.312c4.143 0 7.5-3.357 7.5-7.5s-3.358-7.5-7.501-7.5z"/>
        <path d="m187.097 158.285h131.076c4.143 0 7.5-3.357 7.5-7.5s-3.357-7.5-7.5-7.5h-131.076c-4.143 0-7.5 3.357-7.5 7.5s3.357 7.5 7.5 7.5z"/>
        <path d="m132.78 201.614c-16.487 0-29.9 13.413-29.9 29.9s13.413 29.9 29.9 29.9c16.486 0 29.899-13.413 29.899-29.9s-13.412-29.9-29.899-29.9zm0 44.801c-8.216 0-14.9-6.685-14.9-14.9s6.685-14.9 14.9-14.9 14.899 6.685 14.899 14.9-6.683 14.9-14.899 14.9z"/>
        <path d="m354.408 208.366h-167.311c-4.143 0-7.5 3.357-7.5 7.5s3.357 7.5 7.5 7.5h167.312c4.143 0 7.5-3.357 7.5-7.5s-3.358-7.5-7.501-7.5z"/>
        <path d="m187.097 254.663h131.076c4.143 0 7.5-3.357 7.5-7.5s-3.357-7.5-7.5-7.5h-131.076c-4.143 0-7.5 3.357-7.5 7.5s3.357 7.5 7.5 7.5z"/>
        <path d="m132.78 297.992c-16.487 0-29.9 13.413-29.9 29.9s13.413 29.9 29.9 29.9c16.486 0 29.899-13.413 29.899-29.9s-13.412-29.9-29.899-29.9zm0 44.801c-8.216 0-14.9-6.685-14.9-14.9s6.685-14.9 14.9-14.9 14.899 6.685 14.899 14.9-6.683 14.9-14.899 14.9z"/>
        <path d="m354.408 304.744h-167.311c-4.143 0-7.5 3.357-7.5 7.5s3.357 7.5 7.5 7.5h167.312c4.143 0 7.5-3.357 7.5-7.5s-3.358-7.5-7.501-7.5z"/>
        <path d="m187.097 351.041h131.076c4.143 0 7.5-3.357 7.5-7.5s-3.357-7.5-7.5-7.5h-131.076c-4.143 0-7.5 3.357-7.5 7.5s3.357 7.5 7.5 7.5z"/>
        <path d="m132.78 394.37c-16.487 0-29.9 13.413-29.9 29.9s13.413 29.9 29.9 29.9c16.486 0 29.899-13.413 29.899-29.9s-13.412-29.9-29.899-29.9zm0 44.801c-8.216 0-14.9-6.685-14.9-14.9s6.685-14.9 14.9-14.9 14.899 6.685 14.899 14.9-6.683 14.9-14.899 14.9z"/>
        <path d="m354.408 401.122h-167.311c-4.143 0-7.5 3.357-7.5 7.5s3.357 7.5 7.5 7.5h167.312c4.143 0 7.5-3.357 7.5-7.5s-3.358-7.5-7.501-7.5z"/>
        <path d="m318.173 432.419h-131.076c-4.143 0-7.5 3.357-7.5 7.5s3.357 7.5 7.5 7.5h131.076c4.143 0 7.5-3.357 7.5-7.5s-3.358-7.5-7.5-7.5z"/>
        <path d="m488.53 130.677h-28.905c-11.673 0-21.63 10.996-21.628 25.584 0 10.752-.001 80.598-.001 97.208 0 4.143 3.357 7.5 7.5 7.5s7.5-3.357 7.5-7.5v-62.222h42.162v181.954h-42.162v-84.732c0-4.143-3.357-7.5-7.5-7.5s-7.5 3.357-7.5 7.5v92.232c0 .92.198 2.01.617 2.978.001.002.002.005.003.008l24.11 55.572c4.626 10.668 18.081 10.654 22.701.002l24.111-55.574c.002-.005.003-.01.006-.016.417-.967.614-2.048.614-2.97 0-7.736 0-219.652 0-224.44 0-14.108-9.702-25.584-21.628-25.584zm-35.533 45.57v-19.987c0-5.98 3.368-10.583 6.628-10.583h28.905c3.135 0 6.628 4.347 6.628 10.584v19.986zm21.08 251.486-17.151-39.532h34.303z"/>
    </g>
</svg>